<mxfile host="www.draw.io" modified="2019-10-31T01:18:16.217Z" agent="Mozilla/5.0 (Windows NT 10.0; WOW64) AppleWebKit/537.36 (KHTML, like Gecko) Chrome/69.0.3497.100 Safari/537.36" etag="NhNcuY4eEphvTpXwiw6x" version="12.1.9" type="github" pages="1">
  <diagram id="gLsfpI772d_uA_LMGMaP" name="请求参数过滤器">
    <mxGraphModel dx="1408" dy="725" grid="1" gridSize="10" guides="1" tooltips="1" connect="1" arrows="1" fold="1" page="1" pageScale="1" pageWidth="827" pageHeight="1169" math="0" shadow="0">
      <root>
        <mxCell id="0"/>
        <mxCell id="1" parent="0"/>
      </root>
    </mxGraphModel>
  </diagram>
</mxfile>
